<svg xmlns="http://www.w3.org/2000/svg" aria-hidden="true" style="position:absolute;width:0;height:0;overflow:hidden"><defs><symbol id="cross" viewBox="0 0 32 32"><path  d="m25.334 8.547-1.88-1.88-7.453 7.453-7.453-7.453-1.88 1.88L14.121 16l-7.453 7.453 1.88 1.88 7.453-7.453 7.453 7.453 1.88-1.88L17.881 16z" /></symbol><symbol id="menu" viewBox="0 0 20 20" ><path fill-rule="evenodd" d="M3 5a1 1 0 011-1h12a1 1 0 110 2H4a1 1 0 01-1-1zM3 10a1 1 0 011-1h12a1 1 0 110 2H4a1 1 0 01-1-1zM3 15a1 1 0 011-1h12a1 1 0 110 2H4a1 1 0 01-1-1z" clip-rule="evenodd" /></symbol><symbol id="telegr" viewBox="0 0 32 32"><path  d="M16 0C7.164 0 0 7.164 0 16s7.164 16 16 16c8.837 0 16-7.163 16-16S24.837 0 16 0zm9 7.436L21.418 24.26a.483.483 0 0 1-.729.313l-5.509-3.654-2.898 2.697a.483.483 0 0 1-.77-.207l-1.887-5.951-5.066-2.078c-.389-.177-.383-.796.015-.951l19.778-7.54a.483.483 0 0 1 .648.546z" /><path  d="m12.121 21.645.322-3.059 8.935-8.734-10.787 7.084z" /></symbol><symbol id="left" viewBox="0 0 32 32"><path fill="#fff" d="m14.437 16 6.6 6.6-1.885 1.887L10.667 16l8.485-8.485L21.037 9.4l-6.6 6.6z" style="fill:var(--color3, #fff)"/></symbol><symbol id="right" viewBox="0 0 32 32"><path fill="#fff" d="m17.561 16-6.6-6.6 1.887-1.884L21.333 16l-8.485 8.485-1.885-1.887 6.599-6.599z" style="fill:var(--color3, #fff)"/></symbol><symbol id="logo" viewBox="0 0 46 32"><path d="M12.023 12.594c0-.622-.085-1.079-.256-1.371-.171-.305-.512-.457-1.024-.457h-.183v-.549h2.194c.439 0 .774.073 1.006.219s.396.39.494.731c.098.329.146.805.146 1.426v8.869h6.309v.823h-8.686zm13.464 9.107 6.802-10.679h-3.968c-.683 0-1.207.177-1.573.53-.354.341-.53.902-.53 1.682h-.549V11.68c0-.975.518-1.463 1.554-1.463h8.32l-7.168 11.246h7.077v.823h-9.966z"/></symbol><symbol id="moon" viewBox="0 0 32 32"><path d="M12.001.555a1.534 1.534 0 0 1 .16 1.716 14.422 14.422 0 0 0-1.756 6.92c0 8.042 6.556 14.555 14.637 14.555 1.054 0 2.08-.11 3.066-.32a1.58 1.58 0 0 1 1.62.632 1.47 1.47 0 0 1-.062 1.787 16.7 16.7 0 0 1-12.977 6.156C7.469 32.001 0 24.573 0 15.42 0 8.532 4.228 2.623 10.248.119A1.5 1.5 0 0 1 12 .555z"/><path d="M21.588 6.295A.431.431 0 0 1 22 5.998a.437.437 0 0 1 .412.297l.774 2.324a3.472 3.472 0 0 0 2.194 2.194l2.324.774a.431.431 0 0 1 .297.412.437.437 0 0 1-.297.412l-2.324.774a3.464 3.464 0 0 0-2.194 2.194l-.774 2.324A.431.431 0 0 1 22 18a.437.437 0 0 1-.412-.297l-.774-2.324a3.464 3.464 0 0 0-2.194-2.194l-2.324-.774a.431.431 0 0 1-.297-.412.437.437 0 0 1 .297-.412l2.324-.774a3.464 3.464 0 0 0 2.194-2.194l.774-2.324zM27.726.197A.292.292 0 0 1 28 .002a.29.29 0 0 1 .274.195l.516 1.548a2.31 2.31 0 0 0 1.464 1.464l1.548.516a.292.292 0 0 1 .195.274.29.29 0 0 1-.195.274l-1.548.516a2.308 2.308 0 0 0-1.464 1.464l-.516 1.548a.292.292 0 0 1-.274.195.29.29 0 0 1-.274-.195l-.516-1.548a2.308 2.308 0 0 0-1.464-1.464l-1.548-.516a.292.292 0 0 1-.195-.274.29.29 0 0 1 .195-.274l1.548-.516a2.31 2.31 0 0 0 1.464-1.464l.516-1.546V.197z"/></symbol><symbol id="sun" viewBox="0 0 32 32"><path d="M16 22a5.996 5.996 0 0 1-6-6 5.996 5.996 0 0 1 6-6 5.996 5.996 0 0 1 6 6 5.996 5.996 0 0 1-6 6zm0 2a8 8 0 1 0 0-16 8 8 0 0 0 0 16zm0-24a.997.997 0 0 1 1 1v4a.997.997 0 0 1-1 1 .997.997 0 0 1-1-1V1a.997.997 0 0 1 1-1zm0 26a.997.997 0 0 1 1 1v4a.997.997 0 0 1-1 1 .997.997 0 0 1-1-1v-4a.997.997 0 0 1 1-1zm16-10a.997.997 0 0 1-1 1h-4a.997.997 0 0 1-1-1 .997.997 0 0 1 1-1h4a.997.997 0 0 1 1 1zM6 16a.997.997 0 0 1-1 1H1a.997.997 0 0 1-1-1 .997.997 0 0 1 1-1h4a.997.997 0 0 1 1 1zM27.314 4.686a1.003 1.003 0 0 1 0 1.414l-2.828 2.83a1.007 1.007 0 0 1-.708.293.998.998 0 0 1-1-1.002c0-.265.106-.52.294-.707L25.9 4.686a1.003 1.003 0 0 1 1.414 0zM8.928 23.072a1.003 1.003 0 0 1 0 1.414L6.1 27.314a1.002 1.002 0 0 1-1.401-.012 1.001 1.001 0 0 1-.012-1.401l2.828-2.828a1.003 1.003 0 0 1 1.414 0zm18.386 4.242a1.003 1.003 0 0 1-1.414 0l-2.828-2.828a1.002 1.002 0 0 1 .012-1.401 1.001 1.001 0 0 1 1.401-.012l2.828 2.828a1.003 1.003 0 0 1 0 1.414zM8.928 8.93a1.003 1.003 0 0 1-1.414 0L4.686 6.1a1.004 1.004 0 0 1-.013-1.426 1.001 1.001 0 0 1 1.426.013l2.828 2.828a.991.991 0 0 1 .293.708 1.002 1.002 0 0 1-.293.708z"/></symbol><symbol id="git" viewBox="0 0 32 32"><path  d="M10.703 25.123c0 .129-.148.232-.335.232-.213.019-.361-.084-.361-.232 0-.129.148-.232.335-.232.194-.019.361.084.361.232zm-2.006-.291c-.045.129.084.277.277.316.168.064.361 0 .4-.129s-.084-.277-.277-.335c-.168-.045-.355.019-.4.148zm2.851-.109c-.187.045-.316.168-.297.316.019.129.187.213.381.168.187-.045.316-.168.297-.297-.019-.123-.194-.206-.381-.187zM15.794 0C6.846 0 0 6.794 0 15.742c0 7.155 4.503 13.277 10.935 15.432.826.148 1.116-.361 1.116-.781 0-.4-.019-2.606-.019-3.961 0 0-4.516.968-5.465-1.923 0 0-.735-1.877-1.794-2.361 0 0-1.477-1.013.103-.994 0 0 1.606.129 2.49 1.665 1.413 2.49 3.781 1.774 4.703 1.348.148-1.032.568-1.748 1.032-2.174-3.606-.4-7.245-.923-7.245-7.129 0-1.774.49-2.665 1.523-3.8-.168-.419-.716-2.148.168-4.381 1.348-.419 4.452 1.742 4.452 1.742 1.29-.361 2.677-.548 4.052-.548s2.761.187 4.052.548c0 0 3.103-2.168 4.452-1.742.884 2.239.335 3.961.168 4.381 1.032 1.142 1.665 2.032 1.665 3.8 0 6.226-3.8 6.723-7.406 7.129.594.51 1.097 1.477 1.097 2.994 0 2.174-.019 4.864-.019 5.394 0 .419.297.929 1.116.781 6.452-2.142 10.826-8.264 10.826-15.419 0-8.948-7.258-15.742-16.206-15.742zM6.271 22.252c-.084.064-.064.213.045.335.103.103.252.148.335.064.084-.064.064-.213-.045-.335-.103-.103-.252-.148-.335-.064zm-.697-.523c-.045.084.019.187.148.252.103.064.232.045.277-.045.045-.084-.019-.187-.148-.252-.129-.039-.232-.019-.277.045zm2.091 2.297c-.103.084-.064.277.084.4.148.148.336.168.419.065.084-.084.045-.277-.084-.4-.142-.148-.335-.168-.419-.065zm-.736-.949c-.103.065-.103.232 0 .381s.277.213.361.148c.103-.084.103-.252 0-.4-.09-.148-.258-.213-.361-.129z" /></symbol><symbol id="link" viewBox="0 0 32 32"><path  d="M29.714 0H2.278C1.021 0-.001 1.036-.001 2.307v27.386C-.001 30.964 1.02 32 2.278 32h27.436C30.971 32 32 30.964 32 29.693V2.307C32 1.036 30.971 0 29.714 0zM9.671 27.429H4.928V12.158h4.75v15.271h-.007zM7.3 10.071c-1.521 0-2.75-1.236-2.75-2.75s1.229-2.75 2.75-2.75a2.756 2.756 0 0 1 2.75 2.75 2.747 2.747 0 0 1-2.75 2.75zm20.15 17.358h-4.743V20c0-1.771-.036-4.05-2.464-4.05-2.471 0-2.85 1.929-2.85 3.921v7.557H12.65V12.157h4.55v2.086h.064c.636-1.2 2.186-2.464 4.493-2.464 4.8 0 5.693 3.164 5.693 7.279v8.371z" /></symbol><symbol id="sphere" viewBox="0 0 32 32"><path d="M15 2C6.716 2 0 8.716 0 17s6.716 15 15 15c8.284 0 15-6.716 15-15S23.284 2 15 2zm8.487 20c.268-1.264.437-2.606.492-4h3.983a12.866 12.866 0 0 1-.959 4h-3.516zM6.513 12a23.855 23.855 0 0 0-.492 4H2.038c.104-1.381.426-2.722.959-4h3.516zm14.926 0c.3 1.28.481 2.62.54 4H16v-4h5.439zM16 10V4.146c.456.133.908.355 1.351.668.831.586 1.625 1.488 2.298 2.609.465.775.867 1.638 1.203 2.578H16zm-5.649-2.578c.673-1.121 1.467-2.023 2.298-2.609A4.557 4.557 0 0 1 14 4.145v5.854H9.148c.336-.94.738-1.803 1.203-2.578zM14 12v4H8.021c.059-1.38.24-2.72.54-4H14zM2.997 22a12.894 12.894 0 0 1-.959-4h3.983c.055 1.394.224 2.736.492 4H2.997zm5.024-4H14v4H8.561c-.3-1.28-.481-2.62-.54-4zM14 24v5.854a4.557 4.557 0 0 1-1.351-.668c-.831-.586-1.625-1.488-2.298-2.609a14.478 14.478 0 0 1-1.203-2.578H14zm5.649 2.578c-.673 1.121-1.467 2.023-2.298 2.609a4.581 4.581 0 0 1-1.351.668v-5.854h4.852a14.51 14.51 0 0 1-1.203 2.578zM16 22v-4h5.979c-.059 1.38-.24 2.72-.54 4H16zm7.98-6a23.855 23.855 0 0 0-.492-4h3.516c.533 1.278.855 2.619.959 4H23.98zm1.978-6h-2.997c-.582-1.836-1.387-3.447-2.354-4.732a12.974 12.974 0 0 1 3.585 2.54A13.07 13.07 0 0 1 25.958 10zM5.808 7.808a12.974 12.974 0 0 1 3.585-2.54C8.426 6.553 7.622 8.164 7.039 10H4.042a12.97 12.97 0 0 1 1.766-2.192zM4.042 24h2.997c.583 1.836 1.387 3.447 2.354 4.732a12.974 12.974 0 0 1-3.585-2.54A13.07 13.07 0 0 1 4.042 24zm20.15 2.192a12.974 12.974 0 0 1-3.585 2.54c.967-1.285 1.771-2.896 2.354-4.732h2.997a12.97 12.97 0 0 1-1.766 2.192z"/></symbol><symbol id="mail" viewBox="0 0 32 32"><path d="M26.666 0H5.334C2.4 0 0 2.4 0 5.333v21.333C0 29.6 2.4 32 5.334 32h21.332C29.602 32 32 29.6 32 26.666V5.333C32 2.399 29.602 0 26.666 0zM8 8h16c.286 0 .563.061.817.177L16 18.463 7.183 8.176c.254-.116.531-.177.817-.177zM6 22V10c0-.042.002-.084.004-.125l5.864 6.842-5.8 5.8A1.983 1.983 0 0 1 5.999 22zm18 2H8c-.177 0-.35-.024-.517-.069l5.691-5.691L16 21.537l2.826-3.297 5.691 5.691c-.167.045-.34.069-.517.069zm2-2c0 .177-.024.35-.069.517l-5.8-5.8 5.864-6.842c.003.041.004.083.004.125v12z"/></symbol></defs></svg>